# xmcd
#
# Track frame offsets:
#	150
#	75963
#	86564
#	97205
#	106159
#	114707
#	125066
#	135671
#	143488
#	152757
#
# Disc length: 2286 seconds
#
# Revision: 1
# Processed by: cddbd v1.5.1PL2 Copyright (c) Steve Scherf et al.
# Submitted via: EasyCDDAExtractor 9.0.0.1
#
DISCID=7d08ec0a
DTITLE=Various Artist - Cd 8 - Peter Pan
DYEAR=2004
DGENRE=Enfants
TTITLE0=01 - Peter Pan
TTITLE1=02 - Alouette
TTITLE2=03 - Alouette (Instrumentale)
TTITLE3=04 - Il Court, Il Court, Le Furet
TTITLE4=05 - Il Court, Il Court, Le Furet (Instrumentale)
TTITLE5=06 - Dansons La Capucine
TTITLE6=07 - Dansons La Capucine (Instrumentale)
TTITLE7=08 - Meunier Tu Dors
TTITLE8=09 - Meunier Tu Dors (Instrumentale)
TTITLE9=10 - Prélude De Bach
EXTD=
EXTT0=
EXTT1=
EXTT2=
EXTT3=
EXTT4=
EXTT5=
EXTT6=
EXTT7=
EXTT8=
EXTT9=
PLAYORDER=
